<svg xmlns="http://www.w3.org/2000/svg" viewBox="0 0 450 600" width="450" height="600" preserveAspectRatio="none">
  <path fill="#ffffff" fill-rule="nonzero" d="M 180 514.29 C 198 514.58 224.59 520.18 214.41 505.33 C 204.23 490.47 240.23 490.47 232.41 505.33 C 224.59 520.18 252 512.63 270 514.29 C 268.3 531.43 263.6 557.3 279.2 546.18 C 294.8 535.06 294.8 569.34 279.2 563.32 C 263.6 557.3 270.03 582.86 270 600 L 180 600 C 180.07 582.86 172.67 555.82 188.27 565.07 C 203.87 574.32 203.87 540.04 188.27 547.93 C 172.67 555.82 181.11 531.43 180 514.29 Z"/>
</svg>
